<svg width="76" height="77" viewBox="0 0 76 77" fill="none" xmlns="http://www.w3.org/2000/svg">
<path d="M64.8955 20.2372C57.6278 20.2372 51.7067 14.3433 51.7067 7.1019L51.6935 4.36816H36.2246V50.5347C36.2114 53.4684 34.3445 56.0556 31.5572 56.976C30.8641 57.2023 30.1439 57.3225 29.4104 57.3225C25.6493 57.3225 22.5962 54.2685 22.5962 50.5083C22.5962 47.6948 24.3158 45.2672 26.7565 44.2276C27.5698 43.881 28.4638 43.6942 29.4104 43.6942C30.1439 43.6942 30.8641 43.8144 31.5572 44.0407L32.0906 44.2144V28.5314C31.2774 28.4384 30.45 28.398 29.6368 28.398C28.6638 28.398 27.7031 28.4647 26.7565 28.5849C21.9426 29.2122 17.4885 31.3853 13.995 34.8797C9.82066 39.0531 7.52734 44.6004 7.52734 50.5083C7.52734 56.4162 9.82066 61.9767 13.995 66.151C18.1684 70.3244 23.7297 72.6318 29.6368 72.6318C30.7439 72.6318 31.8643 72.552 32.9574 72.3914C37.6379 71.6852 41.9052 69.5375 45.2794 66.1642C49.4265 62.0171 51.7339 56.4961 51.8269 50.6154V32.4794C52.4138 32.8127 53.0937 33.1321 53.7737 33.426C57.3075 34.9192 64.9359 35.7061 64.9359 35.7061H67.5626V20.2372H64.8955ZM62.2284 30.1851C60.0149 29.9316 57.8681 29.3719 55.8012 28.5051C53.9605 27.7313 52.2401 26.718 50.6671 25.5178L46.3594 22.2112V50.5882C46.3463 55.0423 44.5995 59.243 41.4385 62.3899C38.8785 64.9508 35.6376 66.5905 32.0906 67.124C31.2642 67.2441 30.4106 67.3108 29.5569 67.3108C25.0633 67.3108 20.8486 65.5641 17.6753 62.3899C14.5012 59.2166 12.7544 55.002 12.7544 50.5083C12.7544 46.0147 14.5012 41.8 17.6753 38.6268C20.1687 36.1194 23.3297 34.506 26.7433 33.9322V38.8531C21.4759 40.12 17.5551 44.854 17.5551 50.482C17.5551 57.083 22.9428 62.4434 29.5569 62.4434C30.8369 62.4434 32.1038 62.2434 33.3312 61.8302C38.2249 60.2168 41.5324 55.6687 41.5455 50.5083V9.70229H46.5463C47.7193 17.7702 54.1343 24.1579 62.2153 25.3309V30.1851H62.2284Z" fill="#4C5A50"/>
</svg>
