<svg width="76" height="77" viewBox="0 0 76 77" fill="none" xmlns="http://www.w3.org/2000/svg">
<path d="M63.6771 4.36816H11.4127C7.00146 4.36816 3.41309 7.95654 3.41309 12.3678V64.6321C3.41309 69.0434 7.00146 72.6318 11.4127 72.6318H63.6771C68.0883 72.6318 71.6767 69.0434 71.6767 64.6321V12.3678C71.6767 7.95654 68.0883 4.36816 63.6771 4.36816ZM66.3436 64.6321C66.3436 66.1023 65.1473 67.2987 63.6771 67.2987H47.9444V47.8329H56.481L57.4757 39.5666H47.9444V30.6337C47.9444 28.3535 49.6641 26.6338 51.9443 26.6338H57.944V18.9009C56.3649 18.6779 53.3187 18.3675 51.9443 18.3675C48.8345 18.3675 45.7175 19.6795 43.3925 21.9663C40.9974 24.3225 39.6781 27.4087 39.6781 30.6571V39.5666H31.0119V47.8329H39.6781V67.2987H11.4127C9.94253 67.2987 8.74618 66.1023 8.74618 64.6321V12.3678C8.74618 10.8976 9.94253 9.70126 11.4127 9.70126H63.6771C65.1473 9.70126 66.3436 10.8976 66.3436 12.3678V64.6321Z" fill="#4C5A50"/>
</svg>
