<svg width="76" height="77" viewBox="0 0 76 77" fill="none" xmlns="http://www.w3.org/2000/svg">
<path d="M38.2178 72.6318C37.9918 72.6318 37.7657 72.6318 37.5381 72.6307C32.1874 72.6438 27.2433 72.5078 22.4351 72.2151C18.0271 71.9469 14.0032 70.4236 10.7982 67.8101C7.70562 65.2884 5.59371 61.8786 4.52135 57.6767C3.58806 54.0186 3.53859 50.4275 3.49113 46.9542C3.45673 44.4622 3.4214 41.5091 3.41406 38.5061C3.4214 35.4907 3.45673 32.5376 3.49113 30.0456C3.53859 26.5728 3.58806 22.9817 4.52135 19.3231C5.59371 15.1211 7.70562 11.7114 10.7982 9.18962C14.0032 6.57613 18.0271 5.05286 22.4357 4.7846C27.2437 4.49248 32.1889 4.35595 37.5512 4.36902C42.9036 4.35755 47.8461 4.49248 52.6542 4.7846C57.0624 5.05286 61.0862 6.57613 64.2913 9.18962C67.3844 11.7114 69.4957 15.1211 70.5681 19.3231C71.5014 22.9812 71.5508 26.5728 71.5982 30.0456C71.6326 32.5376 71.6686 35.4907 71.6752 38.4936V38.5061C71.6686 41.5091 71.6326 44.4622 71.5982 46.9542C71.5508 50.427 71.5019 54.018 70.5681 57.6767C69.4957 61.8786 67.3844 65.2884 64.2913 67.8101C61.0862 70.4236 57.0624 71.9469 52.6542 72.2151C48.0497 72.4954 43.3197 72.6318 38.2178 72.6318ZM37.5381 67.2976C42.802 67.3101 47.6352 67.1774 52.3303 66.8919C55.6635 66.6894 58.5534 65.6075 60.921 63.677C63.1095 61.8921 64.6167 59.4297 65.4006 56.3579C66.1776 53.3129 66.2224 50.0431 66.2656 46.8813C66.2995 44.4059 66.3349 41.4738 66.3421 38.4999C66.3349 35.5255 66.2995 32.5938 66.2656 30.1185C66.2224 26.9566 66.1776 23.6869 65.4006 20.6413C64.6167 17.5695 63.1095 15.1071 60.921 13.3222C58.5534 11.3922 55.6635 10.3104 52.3303 10.1078C47.6352 9.82186 42.802 9.69013 37.5507 9.7016C32.2878 9.68907 27.4543 9.82186 22.7591 10.1078C19.4259 10.3104 16.5359 11.3922 14.1683 13.3222C11.9798 15.1071 10.4726 17.5695 9.68874 20.6413C8.9117 23.6869 8.8669 26.9561 8.82371 30.1185C8.78984 32.596 8.75451 35.5297 8.74718 38.5061C8.75451 41.4695 8.78984 44.4038 8.82371 46.8813C8.8669 50.0431 8.9117 53.3129 9.68874 56.3579C10.4726 59.4297 11.9798 61.8921 14.1683 63.677C16.5359 65.607 19.4259 66.6888 22.7591 66.8914C27.4543 67.1774 32.2889 67.3107 37.5381 67.2976ZM37.4111 55.1658C28.2218 55.1658 20.7451 47.6896 20.7451 38.4999C20.7451 29.3101 28.2218 21.8339 37.4111 21.8339C46.6008 21.8339 54.077 29.3101 54.077 38.4999C54.077 47.6896 46.6008 55.1658 37.4111 55.1658ZM37.4111 27.167C31.1624 27.167 26.0782 32.2512 26.0782 38.4999C26.0782 44.7485 31.1624 49.8327 37.4111 49.8327C43.6603 49.8327 48.7439 44.7485 48.7439 38.4999C48.7439 32.2512 43.6603 27.167 37.4111 27.167ZM55.9436 16.5008C53.7349 16.5008 51.9438 18.2914 51.9438 20.5006C51.9438 22.7099 53.7349 24.5005 55.9436 24.5005C58.153 24.5005 59.9435 22.7099 59.9435 20.5006C59.9435 18.2914 58.153 16.5008 55.9436 16.5008Z" fill="#4C5A50"/>
</svg>
