<svg width="76" height="77" viewBox="0 0 76 77" fill="none" xmlns="http://www.w3.org/2000/svg">
<path d="M24.7465 60.7657H15.4136V30.6337H24.7465V60.7657ZM25.6777 21.0336C25.6777 18.0165 23.2299 15.5677 20.2145 15.5677C17.1874 15.5677 14.7459 18.0165 14.7459 21.0336C14.7459 24.0517 17.1874 26.5005 20.2145 26.5005C23.2299 26.5005 25.6777 24.0517 25.6777 21.0336ZM59.6772 44.1883C59.6772 36.0996 57.9685 30.1004 48.5193 30.1004C43.979 30.1004 40.9311 32.371 39.6869 34.7324H39.6781V30.6337H30.6119V60.7657H39.6781V45.8049C39.6781 41.8868 40.6754 38.0912 45.532 38.0912C50.3225 38.0912 50.4777 42.5717 50.4777 46.0538V60.7657H59.6772V44.1883ZM71.6767 64.6321V12.3678C71.6767 7.95654 68.0883 4.36816 63.6771 4.36816H11.4127C7.00146 4.36816 3.41309 7.95654 3.41309 12.3678V64.6321C3.41309 69.0434 7.00146 72.6318 11.4127 72.6318H63.6771C68.0883 72.6318 71.6767 69.0434 71.6767 64.6321ZM63.6771 9.70126C65.1473 9.70126 66.3436 10.8976 66.3436 12.3678V64.6321C66.3436 66.1023 65.1473 67.2987 63.6771 67.2987H11.4127C9.94253 67.2987 8.74618 66.1023 8.74618 64.6321V12.3678C8.74618 10.8976 9.94253 9.70126 11.4127 9.70126H63.6771Z" fill="#4C5A50"/>
</svg>
