<svg width="203" height="203" viewBox="0 0 203 203" fill="none" xmlns="http://www.w3.org/2000/svg">
<g clip-path="url(#clip0)">
<path d="M121.464 98.0191C130.874 92.2335 136.441 84.8116 138.026 75.9115C141.866 54.3725 131.197 42.6564 124.819 35.6521C122.709 33.3351 120.081 30.4509 120.005 29.1627C119.882 27.0783 120.143 25.862 120.358 25.2411C120.829 24.5617 121.138 24.2135 121.288 24.0613L121.276 24.0492C122.321 23.0009 123.726 20.6 124.013 18.5777C124.258 16.8415 123.774 15.2587 122.645 14.1204C121.738 13.206 120.528 12.7227 119.145 12.7227C117.361 12.7227 115.372 13.5567 113.672 15.0104C112.131 16.167 110.884 17.684 109.965 19.5225C109.051 20.9457 108.08 22.6758 107.082 24.6652C106.914 24.9988 106.893 25.0281 106.325 25.6904L106.225 25.8073C105.077 26.9164 103.941 27.9489 102.754 28.9606C101.133 30.3474 98.7784 31.8583 96.0524 33.6079C88.1422 38.6849 77.3088 45.6369 71.3795 58.3392C66.1174 69.6182 65.6523 81.9188 65.1142 96.1612L65.0095 98.9919C64.9754 106.668 64.9742 114.354 64.9815 120.287L64.9778 121.421C64.9742 122.498 65.0083 181.365 65.0095 183.872L65.0131 188.763L69.8199 189.675C69.994 189.708 71.5901 190.005 74.17 190.296L76.879 190.601L76.8035 131.823C77.2796 129.504 81.3899 111.324 93.9437 108.403C98.0613 107.445 102.03 106.331 105.747 105.09C105.872 105.083 106.058 105.075 106.294 105.075C111.151 105.075 126.999 107.812 127.014 143.035C127.021 156.842 122.222 166.789 112.752 172.603C108.018 175.507 102.1 177.456 95.1259 178.41V148.178H105.411C106.949 149.693 108.991 150.541 111.179 150.541C115.741 150.541 119.453 146.829 119.453 142.267C119.453 137.704 115.741 133.992 111.179 133.992C108.99 133.992 106.948 134.839 105.411 136.355H89.2161C85.9568 136.355 83.3062 139.007 83.3062 142.266V190.91L85.7607 190.891C94.9055 190.819 108.083 189.336 118.937 182.674C132.149 174.565 138.844 161.228 138.837 143.028C138.826 116.21 130.117 103.762 121.464 98.0191ZM76.8084 105.48C76.812 103.411 76.8181 101.319 76.8266 99.2476L76.9301 96.6056C77.4171 83.6464 77.8396 72.4562 82.0948 63.3383C86.5753 53.737 95.3718 48.0926 102.448 43.5501C105.408 41.6507 108.203 39.8574 110.439 37.9446C110.625 37.7864 110.81 37.6269 110.991 37.4686C112.401 39.5725 114.205 41.5521 116.083 43.6122C122.236 50.3681 129.209 58.0251 126.39 73.8406C124.53 84.2807 113.04 91.8208 91.2651 96.8881C85.7559 98.1713 80.915 101.052 76.8084 105.48Z" fill="url(#paint0_linear)"/>
</g>
<defs>
<linearGradient id="paint0_linear" x1="101.908" y1="12.7227" x2="101.908" y2="190.91" gradientUnits="userSpaceOnUse">
<stop stop-color="#0D573E"/>
<stop offset="1" stop-color="#138760"/>
</linearGradient>
<clipPath id="clip0">
<rect width="73.8616" height="178.189" fill="white" transform="translate(64.9775 12.7227)"/>
</clipPath>
</defs>
</svg>
